<svg id="Capa_1" enable-background="new 0 0 512 512" height="512" viewBox="0 0 512 512" width="512" xmlns="http://www.w3.org/2000/svg"><g><path d="m478.32 129c0 54.88-22.24 104.56-58.2 140.52s-85.64 58.2-140.52 58.2h-47.2c-109.75 0-198.72-88.97-198.72-198.72 44.12-77.07 127.16-129 222.32-129s178.2 51.93 222.32 129z" fill="#ff507a"/><g><g><path d="m512 256c0 80.38-37.05 152.11-95 199.04l-50.48 15.09c-72.1 21.54-148.94 21.54-221.04 0l-50.48-15.09c-57.95-46.93-95-118.66-95-199.04 0-46.22 12.25-89.57 33.68-127 35.2 61.48 95.17 106.97 166.3 122.85 18.03 4.03 36.78 6.15 56.02 6.15 5.11 0 10.18-.15 15.21-.45 13.93-.82 27.56-2.75 40.8-5.7 71.14-15.88 131.12-61.37 166.31-122.85 21.43 37.43 33.68 80.78 33.68 127z" fill="#ff2955"/></g></g><g><g><path d="m256 184.37c-20.3 0-40.6 3.27-60.1 9.8l-9.86 3.3c-7.18 2.4-12.59 8.1-14.75 15.08l-34.941 25.626-41.349-25.626v-23.42c0-26.83 17.9-50.34 43.74-57.54 38.35-10.69 77.8-16.04 117.26-16.04l1.95 1.88c19.25 18.51 18.34 49.58-1.95 66.94z" fill="#501845"/><g><path d="m320.95 351.95-64.95 139.4h-18.903c-33.702 0-67.228-4.861-99.542-14.432l-21.025-6.228c-7.46-4.84-14.64-10.07-21.53-15.65v-100.72c0-19.34 11.3-36.9 28.91-44.91l51.76-23.55c8.7-3.95 14.28-12.63 14.28-22.19v-7.67l10.03-4.15 56.02-23.18 15.21 28.88z" fill="#602558"/><path d="m417 354.32v100.72c-6.89 5.58-14.07 10.81-21.53 15.65l-21.026 6.228c-32.314 9.572-65.84 14.432-99.542 14.432h-18.902v-262.68l56.01 23.18 10.04 4.15v7.67c0 9.56 5.58 18.24 14.28 22.19l51.76 23.55c17.6 8.01 28.91 25.57 28.91 44.91z" fill="#501845"/></g><path d="m256 273.346 45.702 101.975-45.702 80.833c-50.482 0-91.404-40.922-91.404-91.404s40.922-91.404 91.404-91.404z" fill="#501845"/><path d="m347.404 364.75c0 50.482-40.922 91.404-91.404 91.404v-182.808c50.482 0 91.404 40.922 91.404 91.404z" fill="#3d1237"/><g><g><path d="m256.566 307.491h-5.951-.664-6.408c.17 2.282.914 4.399 2.149 6.171 2.765 4.009 4.406 8.7 4.406 13.582v.415h3.033 2.868l5.193-10.67z" fill="#dff6f0"/><path d="m255.999 307.491v20.168h5.893v-.415c0-4.882 1.642-9.573 4.406-13.582 1.234-1.772 1.979-3.889 2.149-6.171z" fill="#c3e0d8"/></g><g><g><path d="m255.999 326.43c-28.707 0-51.983 23.269-51.983 51.976v11.43h25.995 25.988l14.758-28.843z" fill="#fff"/><path d="m255.999 386.709h-30.223-30.195v15.423h30.195 30.223l7.379-7.712z" fill="#dff6f0"/></g><path d="m307.976 378.407v11.43h-51.978v-63.407c28.707 0 51.978 23.271 51.978 51.977z" fill="#dff6f0"/><path d="m255.999 386.709h60.417v15.422h-60.417z" fill="#c3e0d8"/></g></g><path d="m417 189.13v23.42l-35.798 25.626-40.502-25.626c-2.15-6.98-7.56-12.68-14.74-15.08l-9.86-3.3c-19.5-6.53-39.8-9.8-60.1-9.8v-68.82c39.45 0 78.91 5.35 117.26 16.04 25.84 7.2 43.74 30.71 43.74 57.54z" fill="#3d1237"/></g><path d="m283.2 491.35-27.2 20.65c-35.82 0-69.93-7.36-100.88-20.65-13.5-5.79-26.4-12.72-38.59-20.66h139.47z" fill="#501845"/><path d="m395.47 470.69c-12.19 7.94-25.09 14.87-38.59 20.66-30.95 13.29-65.06 20.65-100.88 20.65v-41.31z" fill="#3d1237"/></g><path d="m171.29 212.55c-.03.07-.05.15-.07.22-.63 2.11-.97 4.35-.97 6.64v36.59h-75.25v-43.45z" fill="#fff"/><path d="m417 212.55v43.45h-75.25v-36.59c0-2.29-.34-4.53-.98-6.64-.02-.07-.04-.15-.07-.22z" fill="#dff6f0"/><path d="m256 212.55 27.202 19.29-27.202 24.16h-66.05v-43.45z" fill="#501845"/><path d="m256 212.55h66.05v43.45h-66.05z" fill="#3d1237"/></g></svg>